<?xml version="1.0" encoding="UTF-8" standalone="no"?>
<!-- Created with Inkscape (http://www.inkscape.org/) -->

<svg
   xmlns:dc="http://purl.org/dc/elements/1.1/"
   xmlns:cc="http://creativecommons.org/ns#"
   xmlns:rdf="http://www.w3.org/1999/02/22-rdf-syntax-ns#"
   xmlns:svg="http://www.w3.org/2000/svg"
   xmlns="http://www.w3.org/2000/svg"
   xmlns:sodipodi="http://sodipodi.sourceforge.net/DTD/sodipodi-0.dtd"
   xmlns:inkscape="http://www.inkscape.org/namespaces/inkscape"
   width="640pt"
   height="640pt"
   viewBox="0 0 225.77778 225.77778"
   version="1.1"
   id="svg3723"
   inkscape:version="0.92.2 5c3e80d, 2017-08-06"
   sodipodi:docname="juantu.svg"
   inkscape:export-filename="/Users/zxtang/git/juantu-logo/juantu.png"
   inkscape:export-xdpi="96"
   inkscape:export-ydpi="96">
  <defs
     id="defs3717" />
  <sodipodi:namedview
     id="base"
     pagecolor="#ffffff"
     bordercolor="#666666"
     borderopacity="1.0"
     inkscape:pageopacity="0.0"
     inkscape:pageshadow="2"
     inkscape:zoom="0.75234375"
     inkscape:cx="411.3811"
     inkscape:cy="426.66667"
     inkscape:document-units="pt"
     inkscape:current-layer="layer1"
     showgrid="true"
     units="pt"
     inkscape:pagecheckerboard="false"
     inkscape:window-width="1389"
     inkscape:window-height="855"
     inkscape:window-x="0"
     inkscape:window-y="1"
     inkscape:window-maximized="1">
    <inkscape:grid
       type="xygrid"
       id="grid3725" />
  </sodipodi:namedview>
  <metadata
     id="metadata3720">
    <rdf:RDF>
      <cc:Work
         rdf:about="">
        <dc:format>image/svg+xml</dc:format>
        <dc:type
           rdf:resource="http://purl.org/dc/dcmitype/StillImage" />
        <dc:title />
      </cc:Work>
    </rdf:RDF>
  </metadata>
  <g
     inkscape:label="Layer 1"
     inkscape:groupmode="layer"
     id="layer1"
     transform="translate(0,-71.222229)">
    <g
       id="g16"
       transform="matrix(1.1507934,0,0,1.1481486,-20.154527,-21.598722)">
      <path
         style="fill:#887ddd;fill-opacity:1;stroke:none;stroke-width:0.26458335px;stroke-linecap:butt;stroke-linejoin:miter;stroke-opacity:1"
         d="m 137.0542,249.37501 -0.52918,-121.70829 -21.16653,-3e-5 L 130.70418,106.5 h 74.61302 l -16.40475,21.16672 h -31.22076 l 0.52918,121.70829"
         id="path3839"
         inkscape:connector-curvature="0"
         sodipodi:nodetypes="cccccccc" />
      <g
         transform="translate(3.7041669)"
         id="g4707">
        <path
           style="fill:#007cdc;fill-opacity:1;stroke:none;stroke-width:0.26458335px;stroke-linecap:butt;stroke-linejoin:miter;stroke-opacity:1"
           d="m 74.083335,230.85426 -1e-6,-103.18753 -52.916668,3e-5 v -21.16672 l 100.541664,-2e-5 -15.875,21.16674 -10.583329,-3e-5 10e-7,105.83328"
           id="path3837"
           inkscape:connector-curvature="0"
           sodipodi:nodetypes="cccccccc" />
        <path
           style="fill:#007cdc;fill-opacity:1;stroke-width:0.26458335"
           id="path4684"
           d="m 34.383413,211.53041 c 0.181674,0.41209 0.357235,0.82683 0.54142,1.23787 1.957223,3.69258 8.345025,7.88923 11.377252,10.14839 3.96875,3.96875 25.135417,13.22917 27.781251,7.9375 3.96875,-9.26041 17.197917,-5.29166 21.166667,2.64584 -1.322917,18.52083 -34.395834,26.45833 -52.916668,14.55208 -7.937501,-7.9375 -14.221891,-21.16882 -18.334658,-29.09479 -0.201884,-0.40713 -0.393503,-0.82027 -0.613257,-1.21796 l 10.997993,-6.20828 z"
           inkscape:connector-curvature="0"
           sodipodi:nodetypes="cccccccccc" />
      </g>
    </g>
  </g>
</svg>
